<svg width="7" height="10" viewBox="0 0 7 10" fill="none" xmlns="http://www.w3.org/2000/svg">
<path d="M6.95652 0.869565V0H0V0.869565H2.3913C2.87118 0.870974 3.33372 1.04908 3.69061 1.36988C4.04749 1.69068 4.27372 2.13169 4.32609 2.6087H0V3.47826H4.32609C4.27372 3.95527 4.04749 4.39628 3.69061 4.71708C3.33372 5.03787 2.87118 5.21598 2.3913 5.21739H0V6.23696L4.18131 10L4.76304 9.35391L1.13304 6.08696H2.3913C3.10265 6.08592 3.78747 5.81684 4.30925 5.33334C4.83102 4.84985 5.1514 4.18747 5.20652 3.47826H6.95652V2.6087H5.20652C5.15664 1.95584 4.88065 1.34082 4.42609 0.869565H6.95652Z" fill="white"/>
</svg>
