<svg width="9" height="9" viewBox="0 0 9 9" fill="none" xmlns="http://www.w3.org/2000/svg">
<path d="M8.35714 5.14286H5.14286V8.35714C5.14286 8.52764 5.07513 8.69115 4.95457 8.81171C4.83401 8.93227 4.6705 9 4.5 9C4.3295 9 4.16599 8.93227 4.04543 8.81171C3.92487 8.69115 3.85714 8.52764 3.85714 8.35714V5.14286H0.642857C0.472361 5.14286 0.308848 5.07513 0.188289 4.95457C0.0677295 4.83401 0 4.6705 0 4.5C0 4.3295 0.0677295 4.16599 0.188289 4.04543C0.308848 3.92487 0.472361 3.85714 0.642857 3.85714H3.85714V0.642857C3.85714 0.472361 3.92487 0.308847 4.04543 0.188288C4.16599 0.0677292 4.3295 0 4.5 0C4.6705 0 4.83401 0.0677292 4.95457 0.188288C5.07513 0.308847 5.14286 0.472361 5.14286 0.642857V3.85714H8.35714C8.52764 3.85714 8.69115 3.92487 8.81171 4.04543C8.93227 4.16599 9 4.3295 9 4.5C9 4.6705 8.93227 4.83401 8.81171 4.95457C8.69115 5.07513 8.52764 5.14286 8.35714 5.14286Z" fill="#303030"/>
</svg>
