<svg width="7" height="11" viewBox="0 0 7 11" fill="none" xmlns="http://www.w3.org/2000/svg">
<path fill-rule="evenodd" clip-rule="evenodd" d="M6.50667 1.36552L1.60077 5.5L6.50667 9.63448C6.5711 9.68877 6.62643 9.75857 6.66951 9.8399C6.7126 9.92123 6.74259 10.0125 6.75778 10.1085C6.77296 10.2045 6.77304 10.3033 6.75802 10.3993C6.74299 10.4953 6.71315 10.5867 6.6702 10.6681C6.58346 10.8326 6.44858 10.9468 6.29524 10.9855C6.21932 11.0047 6.14114 11.0048 6.06519 10.9858C5.98923 10.9668 5.91698 10.9291 5.85255 10.8748L0.291225 6.18798C0.201639 6.11246 0.128184 6.01016 0.0773807 5.89014C0.026577 5.77013 -3.80679e-06 5.63612 -3.81869e-06 5.5C-3.83059e-06 5.36388 0.026577 5.22987 0.0773806 5.10986C0.128184 4.98984 0.201639 4.88754 0.291225 4.81202L5.85255 0.125182C5.91698 0.0708876 5.98923 0.033166 6.06519 0.0141707C6.14114 -0.00482458 6.21932 -0.00472255 6.29524 0.014474C6.37117 0.0336695 6.44336 0.0715828 6.50769 0.126048C6.57203 0.180513 6.62725 0.250463 6.6702 0.331906C6.71315 0.413348 6.74299 0.504687 6.75802 0.600707C6.77304 0.696728 6.77296 0.795549 6.75778 0.891529C6.74259 0.98751 6.7126 1.07877 6.66951 1.1601C6.62643 1.24143 6.57109 1.31123 6.50667 1.36552Z" fill="#0A43B1"/>
</svg>
