<svg width="9" height="9" viewBox="0 0 9 9" fill="none" xmlns="http://www.w3.org/2000/svg">
<path d="M4.47208 7.2765L2.37282 8.87932C2.2688 8.96442 2.15532 9.00451 2.03239 8.9996C1.90946 8.99506 1.80072 8.95969 1.70616 8.8935C1.6116 8.82731 1.53841 8.73747 1.48659 8.624C1.43439 8.51053 1.43193 8.3876 1.47921 8.25521L2.28771 5.63113L0.231 4.17016C0.117526 4.09451 0.0466053 3.99522 0.0182368 3.87229C-0.0101316 3.74936 -0.00540348 3.63589 0.0324211 3.53187C0.0702457 3.42785 0.136439 3.33556 0.231 3.25499C0.325561 3.1748 0.439035 3.13471 0.571421 3.13471H3.1104L3.93308 0.411342C3.98036 0.278956 4.05374 0.177208 4.15322 0.106098C4.25232 0.0353661 4.35861 0 4.47208 0C4.58555 0 4.69184 0.0353661 4.79094 0.106098C4.89042 0.177208 4.9638 0.278956 5.01108 0.411342L5.83376 3.13471H8.37274C8.50512 3.13471 8.6186 3.1748 8.71316 3.25499C8.80772 3.33556 8.87391 3.42785 8.91174 3.53187C8.94956 3.63589 8.95429 3.74936 8.92592 3.87229C8.89755 3.99522 8.82663 4.09451 8.71316 4.17016L6.65645 5.63113L7.46495 8.25521C7.51223 8.3876 7.50996 8.51053 7.45814 8.624C7.40594 8.73747 7.33256 8.82731 7.238 8.8935C7.14344 8.95969 7.03469 8.99506 6.91176 8.9996C6.78883 9.00451 6.67536 8.96442 6.57134 8.87932L4.47208 7.2765Z" fill="#34A554"/>
</svg>
