<svg width="11" height="10" viewBox="0 0 11 10" fill="none" xmlns="http://www.w3.org/2000/svg">
<path fill-rule="evenodd" clip-rule="evenodd" d="M1.36553 5.19393L5.5 8.81761L9.63448 5.19393C9.68877 5.14635 9.75857 5.10547 9.8399 5.07365C9.92123 5.04183 10.0125 5.01967 10.1085 5.00846C10.2045 4.99724 10.3033 4.99718 10.3993 5.00828C10.4953 5.01938 10.5867 5.04142 10.6681 5.07314C10.8326 5.13721 10.9468 5.23684 10.9855 5.3501C11.0047 5.40618 11.0048 5.46392 10.9858 5.52003C10.9668 5.57613 10.9291 5.6295 10.8748 5.67709L6.18798 9.78489C6.11246 9.85106 6.01016 9.90532 5.89014 9.94284C5.77013 9.98037 5.63612 10 5.5 10C5.36388 10 5.22987 9.98037 5.10986 9.94284C4.98984 9.90532 4.88754 9.85106 4.81202 9.78489L0.125183 5.67709C0.0708885 5.6295 0.0331669 5.57613 0.0141716 5.52003C-0.0048237 5.46392 -0.00472166 5.40618 0.0144749 5.3501C0.0336704 5.29402 0.0715837 5.2407 0.126049 5.19318C0.180513 5.14565 0.250464 5.10487 0.331906 5.07314C0.413349 5.04142 0.504687 5.01938 0.600708 5.00828C0.696729 4.99718 0.795549 4.99724 0.89153 5.00846C0.987511 5.01967 1.07877 5.04183 1.1601 5.07365C1.24143 5.10547 1.31123 5.14635 1.36553 5.19393Z" fill="#303030"/>
<path fill-rule="evenodd" clip-rule="evenodd" d="M1.36553 0.193933L5.5 3.81761L9.63448 0.193933C9.68877 0.146346 9.75857 0.105474 9.8399 0.0736502C9.92123 0.0418262 10.0125 0.0196737 10.1085 0.00845736C10.2045 -0.00275895 10.3033 -0.00281946 10.3993 0.00827951C10.4953 0.0193785 10.5867 0.0414195 10.6681 0.0731441C10.8326 0.137215 10.9468 0.236839 10.9855 0.350101C11.0047 0.406182 11.0048 0.463924 10.9858 0.520029C10.9668 0.576134 10.9291 0.629503 10.8748 0.67709L6.18798 4.78489C6.11246 4.85106 6.01016 4.90532 5.89014 4.94284C5.77013 4.98037 5.63612 5 5.5 5C5.36388 5 5.22987 4.98037 5.10986 4.94284C4.98984 4.90532 4.88754 4.85106 4.81202 4.78489L0.125183 0.677089C0.0708885 0.629503 0.0331669 0.576133 0.0141716 0.520028C-0.0048237 0.463923 -0.00472166 0.406182 0.0144749 0.3501C0.0336704 0.294019 0.0715837 0.240696 0.126049 0.193175C0.180513 0.145655 0.250464 0.104868 0.331906 0.0731436C0.413349 0.0414191 0.504687 0.019378 0.600708 0.00827908C0.696729 -0.00281988 0.795549 -0.00275936 0.89153 0.00845695C0.987511 0.0196733 1.07877 0.0418258 1.1601 0.0736498C1.24143 0.105474 1.31123 0.146346 1.36553 0.193933Z" fill="#303030"/>
</svg>
